<?xml version="1.0" standalone="no"?>
<!DOCTYPE svg PUBLIC "-//W3C//DTD SVG 20010904//EN"
 "http://www.w3.org/TR/2001/REC-SVG-20010904/DTD/svg10.dtd">
<svg version="1.0" xmlns="http://www.w3.org/2000/svg"
 width="992.000000pt" height="471.000000pt" viewBox="0 0 992.000000 471.000000"
 preserveAspectRatio="xMidYMid meet">

<g transform="translate(0.000000,471.000000) scale(0.100000,-0.100000)"
fill="#000000" stroke="none">
<path d="M9495 4519 c-50 -10 -1205 -216 -2220 -394 -423 -75 -1148 -203
-1610 -285 -834 -148 -1434 -254 -3510 -621 -2009 -355 -2064 -365 -2086 -385
-17 -15 -20 -27 -16 -59 3 -22 57 -341 121 -710 102 -591 118 -672 137 -688
12 -9 26 -17 33 -17 6 0 353 61 771 135 418 75 1030 183 1360 241 330 58 951
168 1380 244 429 77 1052 187 1385 245 333 58 819 144 1080 191 261 47 1047
186 1745 309 699 123 1376 243 1505 266 198 35 239 46 259 65 l25 23 -118 688
c-65 378 -123 701 -128 716 -10 25 -45 49 -66 46 -4 -1 -25 -5 -47 -10z m-242
-533 c70 -34 139 -109 169 -184 18 -46 22 -77 23 -162 0 -96 -2 -110 -27 -157
-52 -99 -136 -159 -256 -184 -59 -12 -59 -12 -64 15 -2 16 6 22 46 32 57 15
101 53 117 102 16 49 5 207 -21 307 -39 152 -96 210 -202 208 -45 -2 -58 1
-58 12 0 8 0 18 0 23 -1 12 62 21 141 18 60 -2 89 -9 132 -30z m-323 -1 c0 -3
27 -154 60 -336 33 -182 60 -339 60 -349 0 -10 -8 -21 -17 -24 -48 -14 -197
-36 -209 -32 -23 9 -16 30 16 48 20 11 30 25 30 40 0 55 -94 544 -108 561 -8
9 -26 17 -39 17 -23 0 -42 24 -29 37 15 15 236 50 236 38z m-335 -137 c23
-131 23 -152 3 -156 -11 -2 -30 16 -56 50 -22 29 -49 61 -60 71 -28 25 -82 36
-131 27 -35 -6 -40 -5 -45 14 -3 11 -3 22 -1 24 2 3 59 15 126 28 67 13 124
26 127 29 15 14 21 -2 37 -87z m-276 -328 c35 -193 61 -354 58 -357 -4 -3 -54
-14 -113 -25 -125 -23 -151 -15 -96 30 18 15 32 34 32 42 1 50 -95 548 -108
563 -8 9 -26 17 -39 17 -23 0 -42 24 -29 37 6 6 177 40 212 42 19 1 24 -21 83
-349z m-504 231 c92 -42 129 -135 91 -226 -16 -38 -82 -90 -127 -100 -37 -8
-38 -25 -1 -25 40 0 96 -51 143 -131 23 -38 53 -79 68 -90 l26 -21 20 26 c23
28 35 25 35 -8 0 -51 -77 -106 -148 -106 -65 0 -100 33 -159 145 -29 55 -64
109 -78 121 -15 12 -28 35 -31 55 -6 33 -3 37 25 49 18 7 38 22 46 34 29 41
12 167 -27 203 -11 10 -38 23 -61 28 -31 8 -42 16 -42 30 0 15 9 22 35 26 71
13 145 9 185 -10z m-216 -313 c30 -167 58 -313 62 -325 5 -13 17 -23 28 -23
32 0 51 -11 51 -29 0 -14 -22 -21 -124 -39 -69 -12 -138 -25 -155 -28 -27 -6
-31 -4 -31 14 0 14 11 27 30 37 17 9 30 23 30 33 0 43 -99 553 -109 566 -7 8
-25 16 -39 18 -19 2 -27 9 -27 23 0 17 13 22 90 36 50 9 101 17 115 18 l26 1
53 -302z m-409 249 c0 -2 9 -54 20 -116 11 -62 18 -116 15 -122 -14 -21 -36
-6 -79 55 -56 79 -107 104 -179 88 -43 -9 -45 -8 -50 15 -5 26 -14 23 142 53
57 11 106 22 109 25 6 5 22 7 22 2z m-301 -184 c66 -356 107 -588 106 -591 -4
-6 -222 -42 -232 -37 -22 8 -14 29 17 47 22 13 30 24 30 45 0 63 -97 555 -111
564 -8 5 -24 9 -37 9 -22 0 -41 25 -28 37 7 8 170 40 207 42 26 1 27 -1 48
-116z m1635 102 c3 -8 8 -37 12 -63 l6 -49 -70 -11 c-103 -17 -99 -19 -107 43
-3 30 -6 58 -6 62 0 5 28 13 63 19 88 16 95 16 102 -1z m-1926 -153 c16 -95
17 -114 6 -119 -20 -8 -42 14 -69 68 -29 57 -68 89 -106 89 -24 0 -29 4 -29
25 0 18 6 26 23 29 12 3 49 11 82 19 33 8 63 11 66 8 4 -3 16 -57 27 -119z
m-243 56 c3 -13 27 -148 55 -300 28 -152 54 -288 60 -302 7 -20 19 -27 50 -32
52 -8 57 -40 8 -49 -18 -3 -91 -16 -163 -29 -95 -17 -132 -21 -137 -12 -12 18
-10 23 27 45 27 16 35 27 35 49 0 15 -23 155 -51 311 -27 156 -49 290 -47 299
2 11 22 20 63 28 89 17 94 16 100 -8z m-211 -40 c3 -13 1 -25 -5 -27 -7 -2
-25 -15 -41 -30 -23 -21 -31 -39 -39 -91 -6 -35 -15 -70 -21 -77 -25 -31 -36
-11 -57 103 -12 64 -21 117 -19 119 4 3 126 22 154 24 15 1 24 -6 28 -21z
m2549 -11 c9 -24 40 -227 35 -232 -6 -6 -289 -57 -293 -53 -1 2 -6 13 -9 26
-6 18 -4 22 16 22 48 0 104 24 139 59 29 29 38 49 48 101 7 36 18 71 23 78 14
16 35 16 41 -1z m-2828 -114 c9 -54 19 -108 22 -120 9 -39 -26 -42 -56 -5 -14
17 -43 51 -64 75 -21 27 -52 50 -72 57 -19 6 -35 18 -35 25 0 7 -3 20 -6 29
-8 20 17 21 81 4 42 -11 46 -11 61 10 8 12 23 22 33 22 16 0 21 -16 36 -97z
m-255 53 c0 -8 3 -21 6 -30 4 -11 -2 -19 -19 -25 -30 -12 -57 -48 -57 -77 0
-24 32 -69 61 -84 10 -6 68 -22 128 -35 160 -35 223 -74 250 -154 36 -108 -15
-227 -121 -282 -51 -26 -75 -25 -80 6 -4 20 1 29 27 45 42 26 59 60 52 106 -6
37 -28 68 -59 85 -10 5 -73 23 -139 40 -135 33 -162 45 -201 86 -91 96 -45
257 92 320 35 16 60 16 60 -1z m1523 -33 c3 -5 8 -33 12 -64 l7 -56 -77 -13
c-45 -8 -80 -9 -85 -4 -5 5 -10 34 -12 64 l-3 55 60 11 c75 15 93 16 98 7z
m-1843 -27 c0 -2 3 -11 6 -20 4 -10 -5 -20 -25 -31 -23 -12 -31 -22 -31 -43 0
-62 97 -554 111 -563 8 -5 24 -9 37 -9 22 0 41 -25 28 -37 -9 -9 -295 -61
-301 -55 -13 13 -2 40 20 50 14 7 28 17 30 24 7 19 -92 557 -106 574 -6 8 -22
14 -35 14 -27 0 -53 37 -32 45 14 5 265 53 286 54 6 1 12 -1 12 -3z m-435
-210 c20 -113 21 -126 6 -131 -18 -7 -42 18 -83 89 -31 51 -79 86 -121 86 -27
0 -33 7 -39 45 -3 18 2 20 37 17 22 -2 55 -8 74 -14 30 -9 36 -8 50 10 16 19
42 33 50 26 2 -2 14 -60 26 -128z m-281 70 c5 -19 -1 -32 -23 -53 -60 -61 -63
-220 -8 -411 29 -98 60 -147 109 -169 40 -18 60 -59 36 -75 -21 -14 -111 -2
-157 22 -103 52 -178 165 -201 301 -28 164 40 328 162 388 56 27 74 27 82 -3z
m2751 -99 c12 -65 19 -120 16 -121 -9 -6 -293 -57 -296 -54 -1 2 -5 12 -9 23
-5 19 0 22 56 34 87 18 130 62 147 151 14 71 26 92 50 88 11 -2 21 -35 36
-121z m-3156 -9 c14 -74 31 -170 31 -180 0 -4 -9 -8 -20 -8 -12 0 -34 20 -58
53 -65 87 -74 92 -158 92 -64 0 -74 2 -78 20 -3 10 -4 20 -3 21 3 3 239 51
259 53 12 1 19 -12 27 -51z m-269 -363 c35 -195 62 -356 59 -358 -5 -5 -229
-45 -229 -41 0 1 -3 9 -6 18 -4 10 5 20 25 31 20 10 31 23 31 38 1 40 -93 552
-103 565 -5 6 -24 16 -41 20 -17 5 -32 15 -34 24 -2 13 18 20 100 36 57 11
110 20 118 21 13 1 28 -65 80 -354z m-524 240 c76 -22 124 -87 124 -165 0 -72
-39 -123 -125 -161 l-50 -23 32 -7 c63 -13 91 -41 172 -173 40 -64 66 -78 87
-47 20 28 34 26 34 -5 0 -36 -56 -90 -109 -104 -83 -22 -141 20 -200 144 -17
36 -47 84 -66 105 -42 46 -59 111 -31 111 10 0 31 13 47 29 25 25 29 37 29 83
0 61 -28 131 -58 147 -12 6 -34 11 -51 11 -21 0 -32 6 -36 21 -9 26 -4 30 42
39 62 12 106 11 159 -5z m-194 -332 c60 -335 62 -343 115 -343 16 0 23 -6 23
-20 0 -11 -1 -20 -2 -20 -2 0 -64 -11 -138 -25 -74 -14 -143 -25 -152 -25 -29
0 -21 33 12 52 17 9 30 25 30 35 0 10 -22 139 -49 288 -52 283 -56 295 -108
295 -16 0 -23 6 -23 19 0 16 11 22 53 30 28 5 72 14 97 19 93 20 79 50 142
-305z m2373 211 c51 -71 94 -104 138 -104 21 0 30 -7 38 -27 16 -42 0 -49 -79
-35 -61 11 -68 10 -82 -6 -9 -10 -25 -21 -38 -24 -25 -7 -23 -13 -48 127 -8
50 -18 100 -21 113 -4 18 -1 22 20 22 20 0 36 -15 72 -66z m-575 46 c0 -6 -10
-24 -21 -40 -21 -27 -21 -32 -9 -108 15 -97 5 -137 -45 -181 -31 -27 -116 -61
-152 -61 -23 0 -15 55 12 80 30 28 33 79 10 158 -16 52 -36 72 -75 72 -20 0
-38 25 -27 37 8 8 233 50 275 52 17 0 32 -4 32 -9z m-2418 -140 c23 -126 23
-140 -2 -140 -12 0 -28 16 -46 48 -41 71 -73 102 -107 102 -27 0 -35 10 -41
49 -1 6 145 39 164 37 10 -1 19 -29 32 -96z m1542 65 c3 -8 8 -37 12 -64 l6
-49 -53 -11 c-115 -23 -113 -24 -123 42 -4 32 -6 60 -4 63 4 3 82 21 149 33 4
0 9 -6 13 -14z m-1780 -42 c3 -16 28 -154 56 -307 53 -297 60 -316 112 -316
27 0 48 -23 35 -37 -10 -9 -319 -63 -328 -57 -17 10 -8 29 24 49 18 11 33 30
35 42 2 11 -19 146 -47 299 -27 154 -51 290 -53 304 -3 22 2 26 47 36 28 7 64
13 82 13 27 1 32 -3 37 -26z m-214 -29 c0 -8 -17 -31 -39 -52 -33 -32 -39 -45
-46 -95 -7 -63 -40 -114 -55 -86 -12 24 -42 217 -35 228 3 6 23 11 43 12 20 0
55 4 77 8 45 9 55 6 55 -15z m-413 -69 c144 -43 244 -202 245 -390 0 -101 -26
-175 -87 -243 -51 -57 -142 -103 -156 -80 -16 24 -9 46 25 80 27 27 35 45 41
89 11 91 -29 319 -70 399 -21 41 -74 90 -96 90 -18 0 -39 33 -39 61 0 14 81
11 137 -6z m-175 -31 c2 -14 -8 -32 -29 -51 -43 -40 -57 -98 -49 -199 17 -208
93 -384 165 -384 24 0 41 -20 41 -47 0 -21 -4 -23 -57 -23 -244 0 -409 330
-288 572 41 82 86 123 170 154 33 13 42 9 47 -22z m2753 14 c3 -13 13 -69 23
-125 l18 -102 -50 -10 c-240 -48 -250 -49 -259 -28 -10 27 -3 33 49 41 92 12
142 66 159 174 10 63 49 95 60 50z m-3110 -75 c3 -10 1 -19 -5 -21 -6 -2 -23
-14 -37 -26 l-26 -22 35 -195 c20 -107 34 -196 31 -199 -2 -2 -20 12 -40 32
-35 35 -38 43 -65 190 -30 160 -38 178 -85 178 -23 0 -42 24 -29 37 4 5 162
37 202 42 7 0 15 -7 19 -16z m-217 -313 l238 -245 13 -73 c7 -40 11 -76 8 -78
-3 -3 -23 -8 -44 -11 l-39 -5 -269 276 -269 276 -52 0 c-50 0 -52 1 -58 32 -3
17 -5 32 -4 33 5 4 223 43 230 41 4 0 114 -111 246 -246z m-330 38 c39 -41 40
-43 72 -227 18 -102 39 -196 46 -208 8 -13 29 -25 49 -29 50 -9 49 -41 -2 -50
-21 -4 -69 -12 -108 -20 -38 -7 -73 -10 -77 -8 -17 11 -7 34 21 48 16 9 31 23
35 32 5 13 -53 370 -78 487 -6 25 -1 22 42 -25z"/>
<path d="M9240 2455 c-8 -2 -32 -6 -52 -10 -32 -5 -38 -10 -38 -30 0 -22 2
-23 58 -18 75 6 116 -16 159 -87 67 -110 101 -375 58 -449 -27 -46 -64 -71
-113 -78 -36 -5 -42 -9 -42 -29 0 -28 20 -31 95 -10 105 28 179 85 226 176 21
40 24 59 24 160 0 110 -1 118 -33 182 -39 80 -112 150 -180 172 -49 16 -136
27 -162 21z"/>
<path d="M8970 2408 c-58 -11 -106 -21 -108 -22 -8 -9 13 -36 28 -36 10 0 27
-8 39 -17 17 -15 29 -62 70 -293 51 -283 52 -302 11 -315 -11 -3 -20 -15 -20
-26 0 -23 13 -23 140 0 91 17 95 19 92 42 -3 28 -97 558 -113 637 -6 28 -16
52 -22 51 -7 -1 -59 -10 -117 -21z"/>
<path d="M8640 2350 c-47 -10 -102 -21 -122 -24 -30 -6 -38 -11 -38 -29 0 -21
4 -22 74 -22 84 0 93 -5 158 -92 37 -51 78 -71 78 -39 0 13 -25 155 -35 204
-6 26 -4 25 -115 2z"/>
<path d="M8306 2289 c-55 -10 -104 -23 -109 -28 -13 -13 0 -31 22 -31 49 0 57
-23 106 -295 25 -143 48 -268 51 -277 5 -17 -16 -43 -49 -63 -12 -7 -14 -14
-8 -24 8 -13 24 -12 118 4 59 10 111 20 114 24 5 5 -48 316 -116 679 -3 17
-11 31 -18 31 -7 -1 -57 -10 -111 -20z"/>
<path d="M7811 2199 c-53 -10 -52 -9 -44 -37 4 -18 13 -22 43 -22 50 0 84 -40
100 -115 16 -78 -1 -119 -62 -151 -24 -12 -27 -18 -21 -47 4 -17 19 -43 34
-57 14 -14 45 -62 67 -106 22 -45 52 -95 67 -112 25 -30 83 -55 108 -47 7 2
24 6 39 9 44 10 98 63 98 97 0 35 -12 37 -33 7 -21 -32 -42 -18 -94 63 -77
119 -119 158 -173 160 -21 0 -18 4 18 20 94 41 132 89 132 167 0 136 -110 204
-279 171z"/>
<path d="M7582 2160 c-51 -9 -95 -20 -98 -23 -13 -13 6 -37 29 -37 13 0 31 -8
39 -17 14 -16 108 -503 108 -558 0 -11 -14 -32 -32 -47 -26 -21 -30 -29 -21
-39 9 -9 45 -6 160 15 81 15 149 28 150 30 10 10 -13 36 -31 36 -49 0 -53 11
-113 343 -53 298 -58 317 -77 316 -12 -1 -63 -9 -114 -19z"/>
<path d="M7334 2120 c-11 -5 -61 -15 -110 -24 -138 -25 -134 -24 -134 -50 0
-23 2 -24 61 -19 80 8 114 -10 169 -88 46 -66 80 -79 79 -31 0 30 -34 210 -40
216 -2 2 -13 0 -25 -4z"/>
<path d="M6905 2038 c-55 -11 -101 -21 -103 -22 -10 -11 15 -35 43 -40 42 -8
39 2 99 -329 48 -260 48 -279 6 -292 -11 -3 -20 -15 -20 -26 0 -24 23 -24 145
0 l90 17 -3 29 c-3 31 -108 621 -117 663 -6 26 -8 26 -140 0z"/>
<path d="M8602 2045 c-34 -7 -65 -15 -69 -18 -5 -6 13 -116 20 -124 5 -4 147
24 154 30 3 4 1 32 -3 64 -10 66 -11 66 -102 48z"/>
<path d="M6643 1992 c-40 -9 -73 -21 -73 -26 0 -22 16 -35 55 -48 26 -9 47
-24 60 -46 53 -86 62 -97 84 -100 20 -3 23 0 18 20 -3 12 -13 67 -22 121 -20
109 -9 103 -122 79z"/>
<path d="M6438 1953 c-46 -9 -78 -20 -78 -27 0 -7 25 -147 55 -311 30 -165 52
-308 49 -318 -3 -9 -19 -24 -35 -32 -18 -10 -29 -23 -29 -36 0 -17 5 -20 28
-15 15 3 81 15 147 26 149 26 155 28 155 46 0 15 -6 18 -51 28 -17 4 -30 16
-37 33 -6 16 -34 159 -63 318 -28 160 -54 293 -58 296 -3 3 -41 -1 -83 -8z"/>
<path d="M6255 1919 c-22 -4 -57 -8 -77 -8 -20 -1 -39 -4 -41 -8 -2 -5 5 -59
16 -121 18 -104 22 -113 41 -110 16 2 23 13 29 48 18 100 27 121 63 142 19 11
34 24 34 28 0 15 -12 40 -19 39 -3 -1 -24 -5 -46 -10z"/>
<path d="M8838 1903 c-10 -3 -21 -17 -24 -31 -20 -94 -38 -138 -66 -163 -29
-28 -83 -49 -125 -49 -18 0 -23 -6 -23 -25 0 -17 5 -25 18 -25 22 0 283 48
288 53 5 5 -37 231 -45 238 -3 3 -14 4 -23 2z"/>
<path d="M5996 1872 c-11 -2 -27 -13 -35 -23 -15 -18 -19 -18 -65 -4 -66 20
-68 20 -64 -17 2 -25 9 -33 32 -39 35 -10 57 -29 113 -101 47 -62 83 -77 83
-35 -1 27 -36 217 -41 221 -2 1 -13 0 -23 -2z"/>
<path d="M5720 1829 c-74 -33 -117 -87 -134 -165 -10 -46 12 -118 47 -154 38
-39 76 -55 205 -85 158 -38 192 -63 192 -141 0 -35 -5 -47 -31 -68 -17 -14
-35 -26 -40 -26 -6 0 -9 -15 -7 -32 3 -29 6 -33 28 -30 40 4 112 54 144 99 32
46 44 120 32 188 -15 79 -99 137 -241 164 -137 28 -186 55 -200 114 -6 24 -2
33 33 66 32 31 39 43 35 65 -6 31 -6 31 -63 5z"/>
<path d="M7265 1803 c-11 -2 -44 -9 -73 -14 l-53 -11 7 -46 c11 -80 12 -81 94
-66 40 8 75 16 80 19 10 6 -13 118 -25 121 -6 1 -19 0 -30 -3z"/>
<path d="M5310 1750 c-128 -23 -145 -28 -145 -45 0 -14 8 -21 27 -23 14 -2 32
-9 38 -17 11 -13 109 -524 110 -567 0 -10 -13 -24 -30 -33 -18 -9 -30 -23 -30
-35 0 -11 3 -20 7 -20 4 0 74 12 155 27 126 22 148 29 148 44 0 12 -11 21 -32
27 -20 5 -38 18 -44 33 -7 13 -33 143 -59 288 l-48 264 32 26 c30 25 39 45 24
54 -5 2 -73 -8 -153 -23z"/>
<path d="M4955 1669 c-6 -17 -12 -20 -33 -15 -15 3 -51 9 -79 12 l-53 7 0 -32
c0 -28 3 -31 33 -31 50 0 93 -33 142 -110 31 -48 51 -70 65 -70 25 0 25 -4 -2
141 -20 110 -23 119 -44 119 -14 0 -25 -8 -29 -21z"/>
<path d="M4675 1641 c-50 -23 -120 -98 -148 -159 -19 -40 -22 -65 -22 -162 1
-136 21 -199 89 -283 63 -77 123 -111 207 -115 67 -4 69 -4 69 19 0 32 -8 40
-55 64 -30 15 -46 33 -68 78 -37 75 -67 220 -67 329 0 97 9 130 47 170 19 20
24 33 19 52 -8 31 -18 32 -71 7z"/>
<path d="M7437 1638 c-8 -13 -20 -50 -27 -83 -19 -90 -86 -145 -177 -145 -18
0 -23 -6 -23 -25 0 -19 5 -25 23 -25 31 1 276 46 283 52 2 3 -5 60 -17 127
-23 125 -35 143 -62 99z"/>
<path d="M4188 1552 c-121 -25 -128 -28 -128 -50 0 -23 2 -23 53 -17 68 9 114
-10 153 -60 65 -85 82 -101 95 -88 9 9 8 34 -5 110 -21 116 -25 133 -34 132
-4 -1 -64 -13 -134 -27z"/>
<path d="M3893 1496 c-61 -12 -115 -24 -119 -28 -11 -12 17 -38 41 -38 12 0
27 -6 33 -12 5 -7 31 -130 56 -273 26 -143 49 -268 52 -278 4 -11 -5 -28 -25
-46 -17 -16 -31 -36 -31 -45 0 -9 1 -16 3 -16 21 0 223 42 228 48 6 6 -115
701 -123 707 -2 1 -53 -8 -115 -19z"/>
<path d="M3372 1402 c-13 -4 -23 -10 -23 -14 1 -5 1 -14 1 -22 0 -8 16 -16 42
-19 55 -7 83 -39 98 -113 16 -76 0 -122 -53 -148 -35 -17 -38 -21 -32 -50 4
-17 22 -47 40 -66 18 -19 51 -71 73 -115 66 -132 123 -166 217 -131 53 21 85
57 85 97 0 34 -12 37 -32 8 -24 -36 -52 -16 -108 77 -56 92 -96 129 -156 143
-21 5 -30 10 -19 10 36 2 119 55 143 91 20 30 23 44 20 97 -5 75 -26 109 -88
141 -34 17 -60 22 -115 21 -38 -1 -80 -4 -93 -7z"/>
<path d="M3173 1366 c-67 -11 -113 -24 -113 -31 0 -18 22 -35 46 -35 12 0 26
-6 31 -12 11 -14 103 -516 103 -561 0 -19 -8 -31 -30 -42 -16 -9 -30 -19 -30
-23 1 -27 21 -27 163 -2 81 15 150 29 153 32 13 13 -11 38 -36 38 -15 0 -32 6
-38 13 -6 7 -36 152 -67 322 -31 171 -59 312 -63 315 -4 4 -58 -3 -119 -14z"/>
<path d="M5644 1335 c-5 -13 15 -154 33 -232 7 -29 25 -29 58 1 22 21 31 23
63 15 56 -13 112 -11 112 4 -1 40 -13 57 -42 57 -47 0 -86 27 -134 93 -59 80
-78 93 -90 62z"/>
<path d="M4994 1316 c-66 -13 -128 -25 -137 -29 -24 -9 -10 -37 19 -37 49 0
85 -70 88 -168 1 -36 -4 -48 -26 -67 -28 -24 -35 -49 -20 -72 12 -19 138 28
175 66 l32 32 -2 118 c-2 95 0 121 12 131 21 17 19 50 -2 49 -10 -1 -72 -11
-139 -23z"/>
<path d="M2688 1285 c-3 -3 -36 -12 -74 -18 -63 -12 -69 -15 -69 -37 0 -19 7
-26 33 -31 42 -9 65 -29 102 -95 24 -43 35 -54 55 -54 22 0 24 3 19 29 -3 15
-13 68 -22 116 -15 80 -28 106 -44 90z"/>
<path d="M4163 1247 c-32 -6 -53 -15 -53 -23 0 -27 22 -114 29 -114 11 0 123
20 142 26 13 3 14 13 5 64 -10 59 -11 60 -40 59 -17 -1 -55 -6 -83 -12z"/>
<path d="M2388 1228 c-50 -9 -58 -13 -58 -32 0 -12 23 -145 50 -296 28 -151
50 -289 50 -308 0 -27 -6 -36 -35 -53 -37 -22 -44 -36 -20 -45 8 -3 84 7 170
22 144 26 156 30 153 49 -2 14 -12 21 -38 25 -23 3 -38 13 -48 30 -7 14 -36
158 -65 320 -60 336 -45 308 -159 288z"/>
<path d="M2162 1188 c-58 -9 -63 -12 -59 -31 3 -12 13 -66 22 -119 17 -97 29
-115 53 -85 6 7 15 40 21 74 12 76 24 99 60 118 22 11 28 20 24 35 -6 22 -20
23 -121 8z"/>
<path d="M1740 1098 c0 -31 4 -36 28 -41 32 -6 77 -48 99 -91 24 -47 63 -213
69 -302 8 -103 -7 -165 -48 -198 -24 -18 -28 -27 -23 -49 9 -33 23 -34 84 -3
132 67 200 247 157 413 -45 177 -154 284 -306 300 l-60 6 0 -35z"/>
<path d="M1623 1095 c-51 -22 -120 -93 -150 -154 -26 -51 -28 -65 -28 -171 1
-141 21 -202 96 -285 64 -69 135 -105 215 -108 l59 -2 3 31 c3 27 -1 32 -25
37 -43 9 -79 42 -108 101 -54 111 -84 362 -51 440 7 18 26 42 40 54 21 16 25
26 20 46 -7 29 -24 32 -71 11z"/>
<path d="M4401 1093 c-5 -10 -14 -45 -21 -78 -17 -82 -62 -128 -143 -145 -45
-9 -57 -15 -57 -30 0 -10 3 -21 8 -24 9 -5 284 44 294 53 4 3 -2 59 -14 124
-18 98 -25 117 -39 117 -10 0 -22 -8 -28 -17z"/>
<path d="M1195 1012 c-44 -8 -81 -16 -83 -17 -1 -1 0 -9 4 -18 3 -9 22 -19 41
-23 44 -8 47 -16 77 -187 23 -134 25 -140 62 -178 21 -21 39 -37 41 -35 2 1
-13 89 -32 195 -19 105 -31 199 -28 207 3 8 18 21 34 30 16 8 29 21 29 29 0
19 -36 18 -145 -3z"/>
<path d="M745 931 c-89 -17 -90 -17 -90 -46 0 -29 2 -30 50 -33 l51 -3 271
-278 c267 -274 271 -277 307 -273 20 2 39 8 42 14 3 5 0 41 -6 80 l-12 71
-237 243 c-190 196 -241 243 -261 242 -14 0 -65 -8 -115 -17z"/>
<path d="M750 775 c0 -6 19 -117 42 -249 l42 -239 -37 -31 c-24 -21 -34 -35
-28 -44 6 -10 28 -9 115 6 59 11 109 22 112 24 11 12 -10 38 -31 38 -54 0 -64
22 -101 230 l-35 195 -39 40 c-22 22 -40 35 -40 30z"/>
</g>
</svg>
